HIERARCHY
ROOT SpineBase
{
  OFFSET 0.000000 0.000000 0.000000
  CHANNELS 6 Xposition Yposition Zposition Zrotation Xrotation Yrotation
  JOINT SpineMid
  {
    OFFSET 0.000000 26.250751 0.000000
    CHANNELS 3 Zrotation Xrotation Yrotation
    JOINT SpineShoulder
    {
      OFFSET -0.087525 19.591017 -0.687991
      CHANNELS 3 Zrotation Xrotation Yrotation
      JOINT Neck
      {
        OFFSET -0.065523 6.510544 -0.535388
        CHANNELS 3 Zrotation Xrotation Yrotation
        JOINT Head
        {
          OFFSET 2.247942 10.681818 -0.668172
          CHANNELS 3 Zrotation Xrotation Yrotation
          End Site
          {
            OFFSET 0 0 0
          }
        }
      }
      JOINT ShoulderLeft
      {
        OFFSET -12.927373 -2.297553 -7.713468
        CHANNELS 3 Zrotation Xrotation Yrotation
        JOINT ElbowLeft
        {
          OFFSET -3.990988 -21.390686 -1.535987
          CHANNELS 3 Zrotation Xrotation Yrotation
          JOINT WristLeft
          {
            OFFSET -2.066654 -16.910198 -13.028719
            CHANNELS 3 Zrotation Xrotation Yrotation
            JOINT HandLeft
            {
              OFFSET 1.784759 -5.102347 0.994285
              CHANNELS 3 Zrotation Xrotation Yrotation
              JOINT HandTipLeft
              {
                OFFSET 1.806539 -4.513099 -2.042709
                CHANNELS 3 Zrotation Xrotation Yrotation
                End Site
                {
                  OFFSET 0 0 0
                }
              }
              JOINT ThumbLeft
              {
                OFFSET -1.517015 -0.497517 2.381301
                CHANNELS 3 Zrotation Xrotation Yrotation
                End Site
                {
                  OFFSET 0 0 0
                }
              }
            }
          }
        }
      }
      JOINT ShoulderRight
      {
        OFFSET 15.206504 -2.450835 2.473570
        CHANNELS 3 Zrotation Xrotation Yrotation
        JOINT ElbowRight
        {
          OFFSET 7.787653 -20.225495 3.860756
          CHANNELS 3 Zrotation Xrotation Yrotation
          JOINT WristRight
          {
            OFFSET 4.615279 -13.175064 -8.978474
            CHANNELS 3 Zrotation Xrotation Yrotation
            JOINT HandRight
            {
              OFFSET -0.873422 -0.532953 -5.394318
              CHANNELS 3 Zrotation Xrotation Yrotation
              JOINT HandTipRight
              {
                OFFSET 1.686539 -2.113346 -6.083428
                CHANNELS 3 Zrotation Xrotation Yrotation
                End Site
                {
                  OFFSET 0 0 0
                }
              }
              JOINT ThumbRight
              {
                OFFSET -3.448075 -0.643302 -2.364960
                CHANNELS 3 Zrotation Xrotation Yrotation
                End Site
                {
                  OFFSET 0 0 0
                }
              }
            }
          }
        }
      }
    }
  }
  JOINT HipLeft
  {
    OFFSET -6.013459 0.920532 -3.941182
    CHANNELS 3 Zrotation Xrotation Yrotation
    JOINT KneeLeft
    {
      OFFSET 10.526017 -0.652536 -28.225535
      CHANNELS 3 Zrotation Xrotation Yrotation
      JOINT AnkleLeft
      {
        OFFSET 6.154745 -33.623077 -2.881927
        CHANNELS 3 Zrotation Xrotation Yrotation
        JOINT FootLeft
        {
          OFFSET 4.320635 -5.854804 -5.455342
          CHANNELS 3 Zrotation Xrotation Yrotation
          End Site
          {
            OFFSET 0 0 0
          }
        }
      }
    }
  }
  JOINT HipRight
  {
    OFFSET 5.414248 0.782119 -1.948321
    CHANNELS 3 Zrotation Xrotation Yrotation
    JOINT KneeRight
    {
      OFFSET 24.726430 3.171298 -14.306807
      CHANNELS 3 Zrotation Xrotation Yrotation
      JOINT AnkleRight
      {
        OFFSET -0.683129 -37.068595 0.066354
        CHANNELS 3 Zrotation Xrotation Yrotation
        JOINT FootRight
        {
          OFFSET -0.622382 -5.218648 -8.652380
          CHANNELS 3 Zrotation Xrotation Yrotation
          End Site
          {
            OFFSET 0 0 0
          }
        }
      }
    }
  }
}
MOTION
Frames: 15
Frame Time: 0.033333
40.565026 30.132812 372.888638 29.682047 17.047976 12.994577 -0.195770 0.691495 -16.644849 -0.168909 -0.450220 1.573430 -82.704968 -64.498443 -34.327097 0.000000 0.000000 0.000000 73.554046 27.481410 -52.277685 -104.864372 -38.350508 -44.601487 9.300231 37.134629 24.139900 0.561450 -10.211298 -8.840247 0.000000 0.000000 0.000000 0.000000 0.000000 0.000000 -4.607436 57.666953 21.410578 -0.065677 -8.855431 -25.135474 -19.563853 -35.329113 -46.204628 -4.042067 -6.572754 42.522076 0.000000 0.000000 0.000000 0.000000 0.000000 0.000000 -17.852157 13.461961 -11.475382 -0.877828 -42.628152 -9.876956 -27.209375 14.466640 23.641800 0.000000 0.000000 0.000000 -20.873177 -5.501907 -28.462740 -7.433869 -9.487539 9.692702 -2.291115 -9.370743 2.726450 0.000000 0.000000 0.000000
40.286528 30.809500 372.602933 31.180216 21.511421 10.726636 0.152539 0.741819 -15.819831 -0.124060 -0.117384 1.606632 -110.919954 -65.476126 -58.791875 0.000000 0.000000 0.000000 60.357307 31.650126 -49.030784 -90.864739 -44.404688 -40.888624 15.503206 33.996782 25.493163 -5.859459 -9.115157 -13.930552 0.000000 0.000000 0.000000 0.000000 0.000000 0.000000 -10.059907 56.847350 24.418802 -1.808379 -17.791648 -25.841070 -19.274546 -33.463730 -44.483293 -6.657927 -4.182968 45.120020 0.000000 0.000000 0.000000 0.000000 0.000000 0.000000 -20.472589 9.354981 -9.558395 -1.513757 -43.840740 -11.826373 -26.483733 17.709807 23.657853 0.000000 0.000000 0.000000 -27.393577 -10.369714 -30.067524 -3.116662 -6.822966 10.976805 0.771583 -0.784879 -5.295507 0.000000 0.000000 0.000000
40.259622 30.408698 372.776365 32.962675 25.015124 8.622906 0.629989 0.860649 -15.051562 -0.032862 0.117744 1.691671 -117.420210 -66.891680 -66.148065 0.000000 0.000000 0.000000 55.094640 29.973766 -44.167090 -89.169340 -44.682304 -39.888026 15.798200 33.388387 25.433132 -4.116838 -8.422395 -13.618399 0.000000 0.000000 0.000000 0.000000 0.000000 0.000000 -8.297204 50.638668 22.760165 -4.628771 -14.340383 -27.488231 -17.998492 -32.596648 -43.423802 -15.022704 3.364751 52.500726 0.000000 0.000000 0.000000 0.000000 0.000000 0.000000 -22.643718 6.596774 -8.013312 -2.958787 -45.190558 -13.979771 -21.843316 21.733184 19.187984 0.000000 0.000000 0.000000 -33.346927 -14.172636 -30.610920 -1.072841 -5.067188 10.343378 9.374230 8.131867 -18.313487 0.000000 0.000000 0.000000
40.681910 29.208290 373.342243 31.646020 21.878967 12.227939 0.620624 1.108055 -17.571100 0.271922 -0.101472 1.769211 -86.156695 -70.234102 -40.273945 0.000000 0.000000 0.000000 59.451018 29.375743 -45.921143 -97.906049 -43.427744 -42.497415 21.340529 39.913901 23.061551 -8.058844 -10.074767 -15.786409 0.000000 0.000000 0.000000 0.000000 0.000000 0.000000 -7.310906 49.174555 20.830759 -0.925180 -5.958427 -24.716542 -18.527112 -34.106086 -43.961152 -26.975454 15.459850 61.784640 0.000000 0.000000 0.000000 0.000000 0.000000 0.000000 -20.825959 10.379257 -9.206450 -3.605446 -46.035269 -15.077030 -19.424130 27.805047 18.839455 0.000000 0.000000 0.000000 -29.047855 -10.013495 -29.223826 -2.256114 -6.090318 8.416881 10.470468 10.853312 -21.971065 0.000000 0.000000 0.000000
41.006251 27.697679 374.039584 27.343939 15.138260 17.475652 0.330850 0.698178 -20.313973 -0.109891 -0.319158 1.453327 -32.069946 -60.471949 1.370988 0.000000 0.000000 0.000000 74.584974 25.225824 -48.308971 -131.367538 -34.876534 -46.597621 76.326943 38.165130 -0.333667 -11.947066 26.859876 -24.333272 0.000000 0.000000 0.000000 0.000000 0.000000 0.000000 -7.778342 52.685338 20.545611 5.903362 0.508073 -19.959106 -19.802620 -34.088905 -44.167952 -28.538173 17.950060 62.289685 0.000000 0.000000 0.000000 0.000000 0.000000 0.000000 -15.438506 15.009197 -13.089106 -0.917851 -44.857119 -12.065769 -24.799708 27.714914 25.501205 0.000000 0.000000 0.000000 -18.408750 -3.044806 -27.270499 -5.372911 -8.066375 5.641877 9.062521 8.611010 -22.298255 0.000000 0.000000 0.000000
41.107968 26.046667 374.760450 19.976379 3.972130 23.371770 -0.062591 0.280724 -23.396791 -1.333205 -0.342367 0.859119 1.475891 -34.317656 12.738285 0.000000 0.000000 0.000000 110.137695 -2.189193 -14.059723 -169.126558 -32.846230 4.364992 138.047533 -4.264240 -0.726730 53.232435 72.463184 -123.226574 0.000000 0.000000 0.000000 0.000000 0.000000 0.000000 -16.122340 59.355228 26.211182 16.741850 9.871321 -10.374519 -19.610494 -34.654402 -46.247139 -25.739510 15.830361 59.158651 0.000000 0.000000 0.000000 0.000000 0.000000 0.000000 -3.508897 23.241006 -17.618505 0.010498 -44.381017 -10.553476 -26.662551 28.141998 28.319676 0.000000 0.000000 0.000000 -3.358044 5.975265 -28.050433 -8.366517 -9.415492 3.069899 6.053738 7.316608 -19.097194 0.000000 0.000000 0.000000
41.056667 24.441502 375.379001 10.528738 -10.967480 26.624952 0.379749 -0.103045 -25.324293 -1.595645 -0.330603 0.489123 21.130057 -3.859333 3.591560 0.000000 0.000000 0.000000 120.391653 -79.544535 150.182968 -16.445346 52.653328 52.305157 -64.598256 -61.259032 -169.805737 -31.747572 -59.899345 -76.340326 0.000000 0.000000 0.000000 0.000000 0.000000 0.000000 -33.429785 60.836218 37.314949 30.146476 29.287787 1.535458 -22.875905 -36.190933 -48.272685 -20.504611 15.222060 53.380821 0.000000 0.000000 0.000000 0.000000 0.000000 0.000000 14.002523 32.033965 -24.279612 0.914923 -43.519614 -8.696652 -29.149620 29.621190 32.784617 0.000000 0.000000 0.000000 17.458298 15.165183 -31.808634 -12.011520 -11.451306 0.587879 1.159812 8.407169 -12.804405 0.000000 0.000000 0.000000
40.877837 23.028048 375.858603 0.226259 -25.544133 25.459909 1.225880 -0.004451 -25.725415 -1.692757 0.166775 0.158946 40.966512 17.807040 -12.068518 0.000000 0.000000 0.000000 -25.445113 -69.598117 11.396569 9.719756 18.033044 28.248813 -30.571336 -12.836146 -105.486055 46.257347 -40.746088 143.434053 0.000000 0.000000 0.000000 0.000000 0.000000 0.000000 -48.232164 53.562553 43.763703 39.516915 54.447916 14.453478 -23.560949 -34.094451 -48.738735 -11.788325 10.345606 45.314385 0.000000 0.000000 0.000000 0.000000 0.000000 0.000000 34.115003 39.361270 -32.850945 0.863093 -43.102407 -7.154001 -30.098461 24.068715 32.548206 0.000000 0.000000 0.000000 37.693790 21.818796 -37.922578 -14.464259 -12.334227 -0.783644 -6.280927 8.040839 -1.561905 0.000000 0.000000 0.000000
40.607526 21.975065 376.084171 -9.028012 -35.945920 21.437351 1.964712 0.208664 -25.234171 -1.620678 0.815347 -0.045211 60.025936 28.229214 -28.314146 0.000000 0.000000 0.000000 -20.318044 -56.128601 15.142778 11.790077 1.721968 28.044876 -18.249260 7.647040 -91.003973 36.715821 -68.201522 88.144760 0.000000 0.000000 0.000000 0.000000 0.000000 0.000000 -59.211636 44.770327 47.346502 49.645737 75.461991 23.381256 -25.456787 -26.893112 -48.447993 -5.705912 2.510563 41.160447 0.000000 0.000000 0.000000 0.000000 0.000000 0.000000 51.297708 43.854371 -41.240547 0.697970 -41.729145 -5.804298 -30.869758 18.023663 31.616812 0.000000 0.000000 0.000000 53.356929 25.449208 -43.698717 -15.195546 -12.489692 -1.395485 -14.742799 11.572554 9.181845 0.000000 0.000000 0.000000
40.025796 21.277372 376.307879 -15.139348 -40.056696 17.652632 2.395326 0.425778 -24.360945 -1.443235 0.935708 -0.218983 69.871164 31.130007 -36.529646 0.000000 0.000000 0.000000 -17.744985 -51.120128 16.121930 12.005695 -0.448186 31.115025 -19.584185 10.786736 -94.076609 6.750378 -67.095902 37.406261 0.000000 0.000000 0.000000 0.000000 0.000000 0.000000 -54.542096 40.874991 41.049035 -30.093322 88.167868 105.875948 -25.695377 -23.419356 -46.494028 0.440193 -4.654279 36.283089 0.000000 0.000000 0.000000 0.000000 0.000000 0.000000 58.537223 44.911796 -43.850861 2.417534 -39.435435 -4.515205 -33.403373 12.596585 31.413227 0.000000 0.000000 0.000000 58.625594 27.065841 -45.317724 -13.985807 -11.280704 -1.044626 -21.470757 14.629672 18.289569 0.000000 0.000000 0.000000
39.599573 21.602456 376.013173 -17.033775 -39.532151 16.430053 2.270070 0.320697 -23.782929 -1.383759 0.865209 -0.313005 73.420743 29.891424 -37.540074 0.000000 0.000000 0.000000 -19.163593 -50.017144 15.301818 13.070518 0.996852 30.624637 -20.183825 8.016976 -96.121661 -12.932012 -59.881867 -1.554422 0.000000 0.000000 0.000000 0.000000 0.000000 0.000000 -55.467217 39.014920 40.779950 -98.879942 87.343099 178.215757 -30.533713 -23.493470 -45.972475 -4.486051 -5.861980 38.556406 0.000000 0.000000 0.000000 0.000000 0.000000 0.000000 58.505021 43.872231 -43.903788 1.275698 -39.136115 -3.668780 -33.809828 12.158669 33.992360 0.000000 0.000000 0.000000 53.465282 27.730865 -43.567538 -9.707304 -7.669703 1.194376 -29.622510 24.111657 27.663459 0.000000 0.000000 0.000000
39.344423 23.063891 375.211635 -14.477319 -36.856862 17.163780 2.246194 0.136265 -23.123963 -0.895390 0.460727 -0.421502 69.952139 27.792124 -33.827102 0.000000 0.000000 0.000000 -24.184150 -51.847729 14.197861 15.547392 10.472339 26.853050 -23.313703 -5.296110 -99.958153 -12.284756 -55.044057 3.084574 0.000000 0.000000 0.000000 0.000000 0.000000 0.000000 -56.090288 41.991891 43.414617 32.037250 82.916103 43.193873 -27.237750 -26.266588 -46.433750 2.450541 -3.479107 33.788976 0.000000 0.000000 0.000000 0.000000 0.000000 0.000000 49.805119 41.623471 -39.461913 1.603158 -38.287251 -3.233278 -33.992633 15.181881 37.382944 0.000000 0.000000 0.000000 42.576080 28.126622 -40.333921 -5.967045 -3.572672 3.736390 -36.269042 29.888563 36.425116 0.000000 0.000000 0.000000
39.698541 23.639213 374.730473 -13.040747 -36.472608 17.628869 1.966673 0.333961 -22.908895 -0.174823 0.498322 -0.555204 71.436263 26.554257 -34.531592 0.000000 0.000000 0.000000 -23.881347 -51.356525 14.573204 15.127816 11.714697 24.918196 -29.057223 -8.508906 -100.763155 -9.460925 -44.641151 10.723637 0.000000 0.000000 0.000000 0.000000 0.000000 0.000000 -40.068504 46.826512 33.988959 1.337358 81.769188 58.249659 -23.225532 -25.383647 -41.700283 11.955967 -2.707182 24.759839 0.000000 0.000000 0.000000 0.000000 0.000000 0.000000 45.893470 40.635714 -38.393813 1.157663 -37.826546 -3.070783 -31.349346 17.150676 35.932194 0.000000 0.000000 0.000000 38.152089 28.717760 -38.883917 -3.263700 -3.982828 4.352205 -41.251253 32.040456 42.378510 0.000000 0.000000 0.000000
40.630160 24.264352 374.134684 -10.312163 -35.717308 19.421684 1.084548 0.536960 -23.391180 0.497734 0.480138 -0.652485 72.491069 25.319839 -35.025815 0.000000 0.000000 0.000000 -23.889353 -50.491253 14.975579 15.425013 5.730622 18.476596 -36.237853 -0.339527 -86.574900 -4.617594 -34.641938 11.945919 0.000000 0.000000 0.000000 0.000000 0.000000 0.000000 -22.994643 46.816648 21.166758 -53.505585 81.603822 99.365954 -21.669492 -28.037139 -38.603482 16.193754 1.209785 19.463293 0.000000 0.000000 0.000000 0.000000 0.000000 0.000000 43.255908 40.318011 -38.259395 -0.219208 -38.976530 -3.914962 -30.389695 20.593468 37.485996 0.000000 0.000000 0.000000 35.091536 28.656448 -37.956048 -2.239323 -4.727825 3.789943 -38.842170 35.429489 38.703633 0.000000 0.000000 0.000000
41.344405 25.192175 373.443230 -8.749085 -34.921452 22.650794 0.952851 0.563847 -25.950726 0.371188 0.685554 -0.553168 76.609267 22.134183 -35.436643 0.000000 0.000000 0.000000 -22.700637 -48.663706 14.915696 14.249778 2.504146 15.817529 -38.355217 0.648230 -79.223826 -1.545798 -38.141459 19.249024 0.000000 0.000000 0.000000 0.000000 0.000000 0.000000 -8.982225 39.285997 8.440842 -96.272242 74.344188 132.053204 -17.996787 -29.854260 -34.408073 22.702122 3.443293 12.534656 0.000000 0.000000 0.000000 0.000000 0.000000 0.000000 42.345608 38.345420 -39.265529 -1.117667 -39.042461 -4.979489 -29.969095 23.850708 39.034329 0.000000 0.000000 0.000000 35.109294 27.019790 -40.102724 -1.896718 -6.659874 3.888889 -35.302751 33.921266 34.682617 0.000000 0.000000 0.000000
